<?xml version="1.0" encoding="UTF-8"?><svg id="Layer_2" xmlns="http://www.w3.org/2000/svg" viewBox="0 0 154.49 154.45"><defs><style>.cls-1{fill:#ffd80c;}</style></defs><g id="Layer_4"><path d="m47.07,77.73v18.63h-4.71l-.09-7.09s-2.28,7.59-10.86,7.59c-9.94,0-15.48-7.74-15.48-17.51s5.94-18.04,16.88-18.04c6.21,0,10.89,2.65,13.86,7.06l-4.77,3.24c-2.03-3.28-4.91-5.17-8.96-5.17-6.84,0-10.48,5.49-10.48,12.78s2.51,12.55,9.12,12.55c7.41,0,8.37-9,8.37-9h-8.92v-5.04h16.04Z"/><path d="m71.15,61.8h-7.7l-13,34.56h6.52l3.02-8.46h14.4l3.01,8.46h6.75l-13-34.56Zm-9.32,20.97l5.31-14.85h.09l5.31,14.85h-10.71Z"/><polygon points="110.43 61.8 110.43 67.02 99 67.02 99 96.36 92.61 96.36 92.61 67.02 81.18 67.02 81.18 61.8 110.43 61.8"/><polygon points="138.29 91.19 138.29 96.36 114.8 96.36 114.8 61.8 137.97 61.8 137.97 66.98 121.14 66.98 121.14 76.38 135.81 76.38 135.81 81.51 121.14 81.51 121.14 91.19 138.29 91.19"/><path d="m107.92,134.41v4.95h-23.13v-4.27l11.65-11.43c2.88-2.84,4.59-5.36,4.59-8.06s-1.84-4.86-5.49-4.86c-3.15,0-5.04,1.53-6.84,3.92l-4.18-3.24c2.61-3.51,6.21-5.58,11.47-5.58,7.11,0,11.3,3.91,11.3,9.49,0,3.42-1.53,6.66-5.49,10.53l-8.73,8.46v.09h14.85Z"/><path d="m138.92,134.41v4.95h-21.82v-4.95h7.83v-21.6c-2.48,1.58-5.18,2.57-7.83,3.29v-5.13c3.64-1.08,6.7-2.57,9.18-4.64h4.9v28.08h7.74Z"/><path class="cls-1" d="m154.49,154.45H0V0h154.49v154.45Zm-148.49-6h142.49V6H6v142.45Z"/></g></svg>